<svg width="14" height="14" viewBox="0 0 14 14" fill="none" xmlns="http://www.w3.org/2000/svg">
<path fill-rule="evenodd" clip-rule="evenodd" d="M10.5577 3.44237C8.59281 1.47754 5.40719 1.47754 3.44236 3.44237C1.47754 5.40719 1.47754 8.59281 3.44237 10.5577C5.40719 12.5225 8.59281 12.5225 10.5577 10.5577C12.5225 8.59281 12.5225 5.40719 10.5577 3.44237ZM2.51429 2.51429C4.99167 0.036902 9.0083 0.036902 11.4857 2.51429C13.9631 4.99168 13.9631 9.0083 11.4857 11.4857C9.0083 13.9631 4.99168 13.9631 2.5143 11.4857C0.0369038 9.0083 0.0369023 4.99168 2.51429 2.51429ZM7 6.34375C7.36243 6.34375 7.65625 6.63757 7.65625 7V9.625C7.65625 9.98742 7.36243 10.2812 7 10.2812C6.63757 10.2812 6.34375 9.98742 6.34375 9.625V7C6.34375 6.63757 6.63757 6.34375 7 6.34375ZM7 3.5C6.51676 3.5 6.125 3.89175 6.125 4.375C6.125 4.85824 6.51676 5.25 7 5.25C7.48324 5.25 7.875 4.85824 7.875 4.375C7.875 3.89175 7.48324 3.5 7 3.5Z" fill="#666666"/>
</svg>
