<svg width="109" height="21" viewBox="0 0 109 21" fill="none" xmlns="http://www.w3.org/2000/svg">
<g clip-path="url(#clip0_1_167)">
<path d="M16.6657 2.3918C14.8865 0.536067 12.0118 0.536067 10.2435 2.3918L8.86575 3.59123L7.75923 2.43706C5.98011 0.581329 3.10532 0.581329 1.3262 2.43706C-0.442067 4.28147 -0.442067 7.29137 1.3262 9.13578L8.86575 17L14.6696 10.9462L16.6657 8.86421C18.4448 7.00849 18.4448 4.24752 16.6657 2.3918Z" fill="#F1B434"/>
<path d="M39.2262 2.3918C37.447 0.536067 34.5723 0.536067 32.804 2.3918L31.4263 3.59123L30.3198 2.43706C28.5407 0.581329 25.6659 0.581329 23.8867 2.43706C22.1185 4.28147 22.1185 7.29137 23.8867 9.13578L31.4263 17L37.2301 10.9462L39.2262 8.86421C41.0053 7.00849 41.0053 4.24752 39.2262 2.3918Z" fill="#F1B434"/>
<path d="M61.7848 2.3918C60.0056 0.536067 57.1309 0.536067 55.3626 2.3918L53.9849 3.59123L52.8784 2.43706C51.0993 0.581329 48.2245 0.581329 46.4453 2.43706C44.6771 4.28147 44.6771 7.29137 46.4453 9.13578L53.9849 17L59.7887 10.9462L61.7848 8.86421C63.5639 7.00849 63.5639 4.24752 61.7848 2.3918Z" fill="#F1B434"/>
<path d="M84.3454 2.3918C82.5662 0.536067 79.6915 0.536067 77.9232 2.3918L76.5454 3.59123L75.4389 2.43706C73.6598 0.581329 70.785 0.581329 69.0059 2.43706C67.2376 4.28147 67.2376 7.29137 69.0059 9.13578L76.5454 17L82.3493 10.9462L84.3454 8.86421C86.1245 7.00849 86.1245 4.24752 84.3454 2.3918Z" fill="#F1B434"/>
<path d="M106.916 2.3918C105.137 0.536067 102.262 0.536067 100.493 2.3918L99.1158 3.59123L98.0092 2.43706C96.2301 0.581329 93.3553 0.581329 91.5762 2.43706C89.8079 4.28147 89.8079 7.29137 91.5762 9.13578L99.1158 17L104.92 10.9462L106.916 8.86421C108.695 7.00849 108.695 4.24752 106.916 2.3918Z" fill="#F1B434"/>
</g>
<defs>
<clipPath id="clip0_1_167">
<rect width="108.25" height="21" fill="white"/>
</clipPath>
</defs>
</svg>
